<svg width="21" height="25" viewBox="0 0 21 25" fill="none" xmlns="http://www.w3.org/2000/svg">
<g id="01 align center">
<path id="Vector" d="M17.7918 8.33333V7.29167C17.7918 5.3578 17.0236 3.50313 15.6562 2.13568C14.2887 0.768227 12.434 0 10.5002 0C8.56629 0 6.71163 0.768227 5.34418 2.13568C3.97672 3.50313 3.2085 5.3578 3.2085 7.29167V8.33333H0.0834961V21.875C0.0834961 22.7038 0.412736 23.4987 0.998788 24.0847C1.58484 24.6708 2.37969 25 3.2085 25H17.7918C18.6206 25 19.4155 24.6708 20.0015 24.0847C20.5876 23.4987 20.9168 22.7038 20.9168 21.875V8.33333H17.7918ZM5.29183 7.29167C5.29183 5.91033 5.84056 4.58557 6.81732 3.60882C7.79407 2.63207 9.11883 2.08333 10.5002 2.08333C11.8815 2.08333 13.2063 2.63207 14.183 3.60882C15.1598 4.58557 15.7085 5.91033 15.7085 7.29167V8.33333H5.29183V7.29167ZM18.8335 21.875C18.8335 22.1513 18.7238 22.4162 18.5284 22.6116C18.3331 22.8069 18.0681 22.9167 17.7918 22.9167H3.2085C2.93223 22.9167 2.66728 22.8069 2.47193 22.6116C2.27658 22.4162 2.16683 22.1513 2.16683 21.875V10.4167H18.8335V21.875Z" fill="#374957"/>
<path id="Vector_2" d="M11.5418 14.583H9.4585V18.7497H11.5418V14.583Z" fill="#374957"/>
</g>
</svg>
